# xmcd CD database file
#
# Track frame offsets:
#	150
#	17921
#	35230
#	49265
#	61107
#
# Disc length: 1139 seconds
#
# Revision: 0
# Processed by: cddbd v1.5.1PL0 Copyright (c) Steve Scherf et al.
# Submitted via: CDex 1.40Release
#
DISCID=40047105
DTITLE=eibu - 平成のこの空に
DYEAR=2005
DGENRE=Pop
TTITLE0=DO IT
TTITLE1=君とチョコパフェ
TTITLE2=1,2!!
TTITLE3=LOVE警視総監
TTITLE4=平成のこの空に
EXTD=YEAR: 2005 ID3G: 13
EXTT0=
EXTT1=
EXTT2=
EXTT3=
EXTT4=
PLAYORDER=
